<svg xmlns="http://www.w3.org/2000/svg" xmlns:xlink="http://www.w3.org/1999/xlink" width="500" zoomAndPan="magnify" viewBox="0 0 375 374.999991" height="500" preserveAspectRatio="xMidYMid meet" version="1.0"><defs><g/><clipPath id="970e47b774"><path d="M 63.082031 63.082031 L 312.082031 63.082031 L 312.082031 312.082031 L 63.082031 312.082031 Z M 63.082031 63.082031 " clip-rule="nonzero"/></clipPath><clipPath id="74723ec6fb"><path d="M 102.25 102.378906 L 272.5 102.378906 L 272.5 149.628906 L 102.25 149.628906 Z M 102.25 102.378906 " clip-rule="nonzero"/></clipPath><clipPath id="1a717c580f"><path d="M 102.25 218.679688 L 272.5 218.679688 L 272.5 272.5 L 102.25 272.5 Z M 102.25 218.679688 " clip-rule="nonzero"/></clipPath></defs><rect x="-37.5" width="450" fill="#ffffff" y="-37.499999" height="449.999989" fill-opacity="1"/><rect x="-37.5" width="450" fill="#ffffff" y="-37.499999" height="449.999989" fill-opacity="1"/><g clip-path="url(#970e47b774)"><path fill="#000000" d="M 187.582031 312.082031 C 118.957031 312.082031 63.082031 256.210938 63.082031 187.582031 C 63.082031 118.957031 118.957031 63.082031 187.582031 63.082031 C 256.210938 63.082031 312.082031 118.957031 312.082031 187.582031 C 312.082031 256.210938 256.210938 312.082031 187.582031 312.082031 Z M 187.582031 64.921875 C 119.9375 64.921875 64.921875 119.9375 64.921875 187.582031 C 64.921875 255.230469 119.9375 310.242188 187.582031 310.242188 C 255.230469 310.242188 310.242188 255.230469 310.242188 187.582031 C 310.242188 119.9375 255.230469 64.921875 187.582031 64.921875 Z M 187.582031 64.921875 " fill-opacity="1" fill-rule="nonzero"/></g><g clip-path="url(#74723ec6fb)"><path fill="#000000" d="M 187.375 272.628906 C 140.449219 272.628906 102.25 234.425781 102.25 187.503906 C 102.25 140.578125 140.449219 102.378906 187.375 102.378906 C 234.296875 102.378906 272.5 140.578125 272.5 187.503906 C 272.5 234.425781 234.296875 272.628906 187.375 272.628906 Z M 187.375 103.636719 C 141.121094 103.636719 103.507812 141.25 103.507812 187.503906 C 103.507812 233.753906 141.121094 271.371094 187.375 271.371094 C 233.628906 271.371094 271.242188 233.753906 271.242188 187.503906 C 271.242188 141.25 233.628906 103.636719 187.375 103.636719 Z M 187.375 103.636719 " fill-opacity="1" fill-rule="nonzero"/></g><g clip-path="url(#1a717c580f)"><path fill="#000000" d="M 187.375 272.5 C 140.449219 272.5 102.25 234.296875 102.25 187.375 C 102.25 140.449219 140.449219 102.25 187.375 102.25 C 234.296875 102.25 272.5 140.449219 272.5 187.375 C 272.5 234.296875 234.296875 272.5 187.375 272.5 Z M 187.375 103.507812 C 141.121094 103.507812 103.507812 141.121094 103.507812 187.375 C 103.507812 233.628906 141.121094 271.242188 187.375 271.242188 C 233.628906 271.242188 271.242188 233.628906 271.242188 187.375 C 271.242188 141.121094 233.628906 103.507812 187.375 103.507812 Z M 187.375 103.507812 " fill-opacity="1" fill-rule="nonzero"/></g><g fill="#000000" fill-opacity="1"><g transform="translate(83.86106, 199.714864)"><g><path d="M 1.652344 -0.253906 C 1.820312 1.847656 2.210938 3.890625 3.109375 5.796875 C 3.863281 7.449219 4.621094 9.097656 5.90625 10.414062 C 9.238281 13.804688 13.328125 14.726562 17.863281 14.082031 C 21.082031 13.605469 23.769531 11.953125 26.066406 9.714844 C 29.089844 6.71875 31.300781 3.164062 33.121094 -0.644531 C 35.082031 -4.703125 36.84375 -8.875 38.917969 -12.90625 C 40.847656 -16.714844 43.117188 -20.296875 46.054688 -23.40625 C 47.148438 -24.554688 48.296875 -25.644531 49.613281 -26.484375 C 49.835938 -26.597656 50.03125 -26.792969 50.3125 -26.652344 C 50.394531 -26.625 50.507812 -26.652344 50.5625 -26.765625 C 50.621094 -26.878906 50.5625 -26.988281 50.453125 -27.046875 C 50.226562 -27.242188 49.976562 -27.296875 49.667969 -27.296875 C 48.996094 -27.296875 48.4375 -26.988281 47.875 -26.679688 C 46.617188 -25.925781 45.46875 -25 44.433594 -23.964844 C 41.800781 -21.335938 39.671875 -18.394531 37.851562 -15.175781 C 37.796875 -15.035156 37.769531 -14.867188 37.574219 -14.78125 C 37.601562 -15.566406 37.433594 -16.265625 37.152344 -16.964844 C 36.03125 -19.878906 33.371094 -21.222656 30.347656 -20.4375 C 28.753906 -20.019531 27.410156 -19.148438 26.148438 -18.113281 C 22.035156 -14.671875 19.121094 -10.332031 17.132812 -5.347656 C 16.40625 -3.5 16.015625 -1.539062 16.238281 0.476562 C 16.324219 1.34375 16.492188 2.210938 17.132812 2.855469 C 18.308594 4.058594 19.988281 4.757812 21.839844 3.554688 C 23.125 2.6875 24.300781 1.652344 25.394531 0.558594 C 27.859375 -1.902344 30.070312 -4.589844 32.503906 -7.082031 C 33.316406 -7.921875 34.101562 -8.734375 34.886719 -9.546875 C 34.914062 -9.546875 34.941406 -9.546875 34.941406 -9.519531 C 34.914062 -9.433594 34.855469 -9.351562 34.828125 -9.265625 C 33.933594 -7.363281 33.007812 -5.460938 32.113281 -3.554688 C 30.824219 -0.8125 29.507812 1.902344 27.800781 4.394531 C 26.207031 6.691406 24.527344 8.847656 22.34375 10.582031 C 19.148438 13.128906 15.566406 14 11.617188 13.046875 C 8.820312 12.347656 6.859375 10.554688 5.460938 8.121094 C 3.949219 5.515625 3.109375 2.714844 2.941406 -0.28125 C 2.800781 -2.546875 2.6875 -4.789062 3.050781 -7.027344 C 4.480469 -15.652344 8.847656 -22.480469 15.652344 -27.800781 C 18.003906 -29.621094 20.605469 -30.964844 23.601562 -31.441406 C 24.695312 -31.609375 25.785156 -31.609375 26.820312 -31.050781 C 27.578125 -30.628906 27.941406 -29.984375 27.828125 -29.117188 C 27.828125 -28.976562 27.859375 -28.894531 27.941406 -28.835938 C 28.222656 -28.585938 28.867188 -28.53125 29.144531 -28.753906 C 29.480469 -29.003906 29.339844 -29.339844 29.257812 -29.675781 C 29.257812 -29.707031 29.230469 -29.761719 29.203125 -29.789062 C 28.867188 -30.601562 28.25 -31.105469 27.492188 -31.496094 C 25.980469 -32.253906 24.414062 -32.421875 22.761719 -32.113281 C 20.15625 -31.664062 17.917969 -30.515625 15.734375 -29.089844 C 12.824219 -27.214844 10.472656 -24.75 8.316406 -22.035156 C 4.925781 -17.722656 2.742188 -12.851562 1.792969 -7.449219 C 1.371094 -5.039062 1.457031 -2.660156 1.652344 -0.253906 Z M 25.449219 -1.652344 C 24.160156 -0.28125 22.761719 0.980469 21.195312 2.070312 C 20.691406 2.40625 20.1875 2.714844 19.597656 2.910156 C 18.730469 3.164062 18.367188 2.96875 18.140625 2.101562 C 18.003906 1.539062 17.972656 0.980469 17.972656 0.421875 C 18.003906 -1.734375 18.617188 -3.78125 19.484375 -5.738281 C 21.25 -9.6875 23.546875 -13.296875 26.738281 -16.265625 C 27.914062 -17.359375 29.171875 -18.28125 30.628906 -18.925781 C 31.496094 -19.316406 32.363281 -19.484375 33.289062 -19.484375 C 33.988281 -19.457031 34.519531 -19.207031 34.941406 -18.644531 C 35.863281 -17.441406 36.398438 -16.097656 36.453125 -14.585938 C 36.453125 -14.308594 36.480469 -14.027344 36.480469 -13.746094 C 36.480469 -13.664062 36.453125 -13.523438 36.507812 -13.46875 C 36.929688 -13.019531 36.507812 -12.824219 36.257812 -12.570312 C 32.421875 -9.15625 28.976562 -5.375 25.449219 -1.652344 Z M 25.449219 -1.652344 "/></g></g></g><g fill="#000000" fill-opacity="1"><g transform="translate(123.279682, 199.714864)"><g><path d="M 1.960938 -0.894531 C 2.015625 -0.308594 2.101562 0.28125 2.378906 0.8125 C 3.332031 2.605469 5.234375 2.996094 6.832031 2.324219 C 10.050781 0.953125 16.097656 -4.339844 19.570312 -4.757812 C 19.542969 -4.871094 19.542969 -4.925781 19.515625 -4.957031 C 18.5625 -6.019531 9.96875 -0.113281 7.140625 1.261719 C 6.410156 1.625 5.683594 1.933594 4.84375 1.933594 C 4.421875 1.902344 4.144531 1.734375 3.976562 1.34375 C 3.808594 0.953125 3.722656 0.53125 3.722656 0.0859375 C 3.695312 -0.925781 3.890625 -1.875 4.285156 -2.828125 C 4.589844 -3.613281 5.066406 -4.3125 5.488281 -5.039062 C 5.796875 -5.628906 5.738281 -5.824219 5.152344 -6.101562 C 4.984375 -6.1875 4.816406 -6.300781 4.648438 -6.242188 C 4.339844 -6.132812 4.171875 -6.300781 3.949219 -6.4375 C 3.109375 -6.914062 2.269531 -7.027344 1.429688 -6.496094 C -0.589844 -5.234375 -1.511719 -3.332031 -1.457031 -1.007812 C -1.457031 -0.222656 -0.558594 0.222656 0.167969 -0.113281 C 0.449219 -0.253906 0.699219 -0.449219 0.894531 -0.671875 C 1.203125 -0.953125 1.511719 -1.261719 1.847656 -1.597656 C 1.960938 -1.316406 1.933594 -1.09375 1.960938 -0.894531 Z M 0.390625 -1.230469 C 0.195312 -1.0625 -0.0273438 -0.925781 -0.335938 -0.699219 C -0.335938 -1.316406 -0.222656 -1.765625 -0.0546875 -2.15625 C 0.449219 -3.445312 1.175781 -4.535156 2.238281 -5.429688 C 2.4375 -5.597656 2.6875 -5.710938 2.910156 -5.851562 C 3.050781 -5.933594 3.246094 -5.964844 3.359375 -5.765625 C 3.472656 -5.597656 3.582031 -5.460938 3.445312 -5.234375 C 2.546875 -3.808594 1.679688 -2.351562 0.390625 -1.230469 Z M 0.390625 -1.230469 "/></g></g></g><g fill="#000000" fill-opacity="1"><g transform="translate(142.177104, 199.714864)"><g><path d="M 7.25 -17.414062 C 9.15625 -20.632812 11.144531 -23.769531 13.1875 -26.90625 C 13.523438 -27.410156 13.914062 -27.914062 14.167969 -28.5 C 14.335938 -28.894531 14.167969 -29.117188 13.746094 -29.089844 C 13.523438 -29.089844 13.382812 -28.949219 13.269531 -28.78125 C 12.851562 -28.277344 12.429688 -27.746094 12.011719 -27.214844 C 10.917969 -25.785156 9.996094 -24.246094 9.015625 -22.734375 C 7.476562 -20.382812 6.046875 -17.945312 4.675781 -15.484375 C 2.855469 -12.234375 1.203125 -8.902344 -0.222656 -5.429688 C -1.121094 -3.246094 -1.988281 -1.0625 -2.742188 1.175781 C -2.910156 1.734375 -3.21875 2.15625 -3.667969 2.546875 C -4.480469 3.21875 -5.207031 3.976562 -5.796875 4.898438 C -6.242188 5.628906 -6.691406 6.410156 -6.746094 7.28125 C -6.832031 8.511719 -6.1875 9.464844 -4.84375 9.632812 C -3.78125 9.742188 -2.828125 9.492188 -1.902344 8.988281 C -0.449219 8.203125 0.671875 7.027344 1.652344 5.710938 C 3.386719 3.359375 4.730469 0.785156 5.796875 -1.933594 C 5.90625 -2.238281 6.046875 -2.4375 6.382812 -2.546875 C 8.035156 -3.164062 9.742188 -3.695312 11.449219 -4.144531 C 12.09375 -4.3125 12.738281 -4.480469 13.410156 -4.675781 C 13.242188 -4.957031 12.992188 -4.984375 12.765625 -4.984375 C 12.570312 -4.984375 12.375 -4.957031 12.179688 -4.925781 C 10.917969 -4.648438 9.660156 -4.3125 8.398438 -3.976562 C 7.699219 -3.78125 7.027344 -3.582031 6.300781 -3.386719 C 6.242188 -3.667969 6.355469 -3.863281 6.410156 -4.085938 C 6.523438 -4.757812 6.550781 -5.429688 6.300781 -6.074219 C 6.160156 -6.46875 5.933594 -6.777344 5.542969 -6.945312 C 4.757812 -7.25 3.976562 -7.25 3.246094 -6.777344 C 2.574219 -6.328125 1.960938 -5.796875 1.429688 -5.207031 C 1.289062 -5.066406 1.175781 -4.871094 0.867188 -4.816406 C 1.121094 -5.460938 1.371094 -6.046875 1.625 -6.636719 C 3.332031 -10.304688 5.207031 -13.914062 7.25 -17.414062 Z M 3.890625 -0.980469 C 2.855469 1.539062 1.597656 3.976562 -0.113281 6.101562 C -1.035156 7.25 -2.101562 8.230469 -3.472656 8.847656 C -3.863281 9.015625 -4.253906 9.15625 -4.703125 9.15625 C -5.125 9.128906 -5.402344 8.960938 -5.597656 8.59375 C -5.851562 8.089844 -5.933594 7.558594 -5.765625 7.027344 C -5.347656 5.597656 -4.453125 4.507812 -3.445312 3.472656 C -3.277344 3.332031 -3.136719 3.386719 -2.96875 3.445312 C -2.351562 3.554688 -2.210938 3.5 -1.960938 2.941406 C -1.902344 2.800781 -1.820312 2.6875 -1.792969 2.574219 C -1.734375 1.902344 -1.230469 1.539062 -0.726562 1.203125 C 0.671875 0.222656 2.128906 -0.589844 3.640625 -1.34375 C 3.75 -1.398438 3.835938 -1.457031 3.949219 -1.398438 C 4.058594 -1.261719 3.949219 -1.121094 3.890625 -0.980469 Z M 2.714844 -5.066406 C 3.21875 -5.542969 3.75 -5.933594 4.339844 -6.242188 C 4.621094 -6.382812 4.757812 -6.300781 4.816406 -6.046875 C 4.898438 -5.683594 4.925781 -5.347656 4.925781 -5.011719 C 4.898438 -4.339844 4.730469 -3.667969 4.589844 -3.023438 C 4.507812 -2.660156 4.285156 -2.464844 3.976562 -2.324219 C 2.574219 -1.707031 1.230469 -0.953125 -0.0859375 -0.167969 C -0.363281 0 -0.589844 0.253906 -0.894531 0.308594 C -0.980469 0.140625 -0.925781 0.0273438 -0.867188 -0.0859375 C 0.140625 -1.875 1.203125 -3.640625 2.714844 -5.066406 Z M 2.714844 -5.066406 "/></g></g></g><g fill="#000000" fill-opacity="1"><g transform="translate(154.887369, 199.714864)"><g><path d="M 7.25 -17.414062 C 9.15625 -20.632812 11.144531 -23.769531 13.1875 -26.90625 C 13.523438 -27.410156 13.914062 -27.914062 14.167969 -28.5 C 14.335938 -28.894531 14.167969 -29.117188 13.746094 -29.089844 C 13.523438 -29.089844 13.382812 -28.949219 13.269531 -28.78125 C 12.851562 -28.277344 12.429688 -27.746094 12.011719 -27.214844 C 10.917969 -25.785156 9.996094 -24.246094 9.015625 -22.734375 C 7.476562 -20.382812 6.046875 -17.945312 4.675781 -15.484375 C 2.855469 -12.234375 1.203125 -8.902344 -0.222656 -5.429688 C -1.121094 -3.246094 -1.988281 -1.0625 -2.742188 1.175781 C -2.910156 1.734375 -3.21875 2.15625 -3.667969 2.546875 C -4.480469 3.21875 -5.207031 3.976562 -5.796875 4.898438 C -6.242188 5.628906 -6.691406 6.410156 -6.746094 7.28125 C -6.832031 8.511719 -6.1875 9.464844 -4.84375 9.632812 C -3.78125 9.742188 -2.828125 9.492188 -1.902344 8.988281 C -0.449219 8.203125 0.671875 7.027344 1.652344 5.710938 C 3.386719 3.359375 4.730469 0.785156 5.796875 -1.933594 C 5.90625 -2.238281 6.046875 -2.4375 6.382812 -2.546875 C 8.035156 -3.164062 9.742188 -3.695312 11.449219 -4.144531 C 12.09375 -4.3125 12.738281 -4.480469 13.410156 -4.675781 C 13.242188 -4.957031 12.992188 -4.984375 12.765625 -4.984375 C 12.570312 -4.984375 12.375 -4.957031 12.179688 -4.925781 C 10.917969 -4.648438 9.660156 -4.3125 8.398438 -3.976562 C 7.699219 -3.78125 7.027344 -3.582031 6.300781 -3.386719 C 6.242188 -3.667969 6.355469 -3.863281 6.410156 -4.085938 C 6.523438 -4.757812 6.550781 -5.429688 6.300781 -6.074219 C 6.160156 -6.46875 5.933594 -6.777344 5.542969 -6.945312 C 4.757812 -7.25 3.976562 -7.25 3.246094 -6.777344 C 2.574219 -6.328125 1.960938 -5.796875 1.429688 -5.207031 C 1.289062 -5.066406 1.175781 -4.871094 0.867188 -4.816406 C 1.121094 -5.460938 1.371094 -6.046875 1.625 -6.636719 C 3.332031 -10.304688 5.207031 -13.914062 7.25 -17.414062 Z M 3.890625 -0.980469 C 2.855469 1.539062 1.597656 3.976562 -0.113281 6.101562 C -1.035156 7.25 -2.101562 8.230469 -3.472656 8.847656 C -3.863281 9.015625 -4.253906 9.15625 -4.703125 9.15625 C -5.125 9.128906 -5.402344 8.960938 -5.597656 8.59375 C -5.851562 8.089844 -5.933594 7.558594 -5.765625 7.027344 C -5.347656 5.597656 -4.453125 4.507812 -3.445312 3.472656 C -3.277344 3.332031 -3.136719 3.386719 -2.96875 3.445312 C -2.351562 3.554688 -2.210938 3.5 -1.960938 2.941406 C -1.902344 2.800781 -1.820312 2.6875 -1.792969 2.574219 C -1.734375 1.902344 -1.230469 1.539062 -0.726562 1.203125 C 0.671875 0.222656 2.128906 -0.589844 3.640625 -1.34375 C 3.75 -1.398438 3.835938 -1.457031 3.949219 -1.398438 C 4.058594 -1.261719 3.949219 -1.121094 3.890625 -0.980469 Z M 2.714844 -5.066406 C 3.21875 -5.542969 3.75 -5.933594 4.339844 -6.242188 C 4.621094 -6.382812 4.757812 -6.300781 4.816406 -6.046875 C 4.898438 -5.683594 4.925781 -5.347656 4.925781 -5.011719 C 4.898438 -4.339844 4.730469 -3.667969 4.589844 -3.023438 C 4.507812 -2.660156 4.285156 -2.464844 3.976562 -2.324219 C 2.574219 -1.707031 1.230469 -0.953125 -0.0859375 -0.167969 C -0.363281 0 -0.589844 0.253906 -0.894531 0.308594 C -0.980469 0.140625 -0.925781 0.0273438 -0.867188 -0.0859375 C 0.140625 -1.875 1.203125 -3.640625 2.714844 -5.066406 Z M 2.714844 -5.066406 "/></g></g></g><g fill="#000000" fill-opacity="1"><g transform="translate(167.597634, 199.714864)"><g><path d="M 7.867188 -7.503906 C 7.53125 -7.195312 7.25 -6.886719 6.914062 -6.605469 C 4.957031 -4.757812 3.078125 -2.855469 1.261719 -0.867188 C 0.53125 -0.0273438 -0.195312 0.8125 -1.0625 1.511719 C -1.230469 1.652344 -1.371094 1.847656 -1.679688 1.792969 C -1.707031 1.398438 -1.597656 1.035156 -1.457031 0.699219 C -0.980469 -0.671875 -0.28125 -1.933594 0.503906 -3.164062 C 0.867188 -3.722656 1.230469 -4.285156 1.597656 -4.871094 C 1.679688 -5.011719 1.820312 -5.152344 1.679688 -5.320312 C 1.457031 -5.628906 0.980469 -5.710938 0.671875 -5.488281 C 0.503906 -5.347656 0.335938 -5.179688 0.195312 -4.984375 C -0.449219 -4.144531 -1.007812 -3.277344 -1.457031 -2.324219 C -2.015625 -1.230469 -2.40625 -0.0546875 -2.546875 1.175781 C -2.605469 1.625 -2.574219 2.015625 -2.15625 2.269531 C -1.707031 2.519531 -1.316406 2.4375 -0.953125 2.15625 C -0.53125 1.847656 -0.140625 1.511719 0.222656 1.121094 C 1.398438 -0.167969 2.546875 -1.457031 3.75 -2.714844 C 4.394531 -3.386719 5.039062 -4.085938 5.765625 -4.703125 C 5.796875 -4.648438 5.824219 -4.621094 5.878906 -4.589844 C 5.738281 -4.367188 5.628906 -4.144531 5.488281 -3.917969 C 4.117188 -1.707031 2.910156 0.589844 1.820312 2.941406 C 1.09375 4.480469 0.503906 6.074219 -0.195312 7.585938 C -0.894531 9.128906 -1.597656 10.640625 -2.296875 12.152344 C -2.519531 12.625 -2.546875 12.65625 -3.078125 12.542969 C -4.730469 12.152344 -6.410156 11.925781 -8.089844 11.703125 C -10.304688 11.449219 -12.542969 11.226562 -14.78125 11.3125 C -18.199219 11.449219 -21.472656 12.121094 -24.527344 13.746094 C -26.375 14.726562 -27.859375 16.070312 -28.894531 17.890625 C -30.460938 20.691406 -30.238281 24.273438 -28.222656 26.765625 C -26.175781 29.230469 -23.460938 30.433594 -20.269531 30.347656 C -16.070312 30.265625 -12.429688 28.667969 -9.433594 25.703125 C -7.867188 24.160156 -6.550781 22.425781 -5.320312 20.605469 C -3.917969 18.5625 -2.714844 16.40625 -1.597656 14.222656 C -1.230469 13.550781 -1.261719 13.550781 -0.476562 13.71875 C 0.699219 14 1.875 14.25 3.050781 14.53125 C 3.21875 14.558594 3.359375 14.644531 3.5 14.585938 C 3.640625 14.558594 3.75 14.445312 3.75 14.308594 C 3.75 14.195312 3.640625 14.167969 3.527344 14.140625 C 3.359375 14.082031 3.191406 14.027344 3.023438 14 C 1.902344 13.71875 0.785156 13.46875 -0.308594 13.1875 C -0.953125 13.046875 -0.953125 13.046875 -0.644531 12.457031 C -0.390625 11.953125 -0.140625 11.480469 0.113281 11.003906 C 1.316406 8.34375 2.546875 5.683594 3.722656 2.996094 C 5.152344 -0.253906 6.972656 -3.304688 8.792969 -6.382812 C 8.902344 -6.550781 9.070312 -6.71875 9.097656 -6.914062 C 9.15625 -7.140625 8.257812 -7.839844 7.867188 -7.503906 Z M -2.996094 13.605469 C -4.648438 17.078125 -6.605469 20.355469 -8.902344 23.40625 C -10.5 25.476562 -12.347656 27.214844 -14.753906 28.363281 C -16.660156 29.285156 -18.675781 29.816406 -21.054688 29.84375 C -23.992188 29.707031 -26.484375 28.390625 -27.941406 25.535156 C -29.507812 22.511719 -29.089844 19.597656 -26.960938 16.910156 C -25.839844 15.511719 -24.386719 14.53125 -22.789062 13.804688 C -20.019531 12.515625 -17.050781 11.953125 -14.027344 11.925781 C -11.617188 11.871094 -9.265625 12.121094 -6.886719 12.457031 C -5.65625 12.625 -4.453125 12.824219 -3.246094 13.101562 C -2.828125 13.214844 -2.828125 13.214844 -2.996094 13.605469 Z M -2.996094 13.605469 "/></g></g></g><g fill="#000000" fill-opacity="1"><g transform="translate(178.964088, 199.714864)"><g/></g></g><g fill="#000000" fill-opacity="1"><g transform="translate(190.162566, 199.714864)"><g><path d="M 3.304688 1.566406 C 2.4375 1.707031 1.652344 2.070312 1.035156 2.714844 C 0.421875 3.359375 0.476562 4.058594 1.203125 4.621094 C 1.539062 4.871094 1.933594 5.039062 2.324219 5.152344 C 3.304688 5.402344 4.253906 5.347656 5.207031 5.09375 C 6.945312 4.675781 8.425781 3.75 9.828125 2.6875 C 10.050781 2.519531 10.273438 2.464844 10.554688 2.546875 C 11.28125 2.742188 12.011719 2.941406 12.738281 3.136719 C 15.59375 3.835938 18.449219 4.453125 21.417969 4.199219 C 22.957031 4.085938 24.496094 3.78125 26.007812 3.445312 C 29.453125 2.6875 32.421875 1.0625 34.914062 -1.429688 C 35.78125 -2.296875 36.535156 -3.304688 37.433594 -4.144531 C 37.515625 -4.226562 37.710938 -4.339844 37.574219 -4.480469 C 37.460938 -4.648438 37.238281 -4.648438 37.070312 -4.507812 C 36.871094 -4.367188 36.703125 -4.226562 36.535156 -4.058594 C 35.472656 -2.996094 34.296875 -2.101562 33.148438 -1.175781 C 30.851562 0.644531 28.277344 1.960938 25.421875 2.632812 C 23.042969 3.21875 20.605469 3.722656 18.113281 3.445312 C 16.183594 3.246094 14.308594 2.882812 12.457031 2.378906 C 11.925781 2.238281 11.421875 2.101562 10.808594 1.933594 C 12.320312 0.726562 13.605469 -0.589844 14.78125 -1.960938 C 18.113281 -5.878906 20.941406 -10.164062 23.40625 -14.671875 C 25.449219 -18.449219 27.691406 -22.117188 30.347656 -25.503906 C 31.132812 -26.511719 31.972656 -27.492188 32.839844 -28.558594 C 32.867188 -28.277344 32.730469 -28.164062 32.644531 -27.996094 C 32.226562 -27.128906 31.75 -26.261719 31.523438 -25.28125 C 31.46875 -25.167969 31.414062 -25 31.609375 -24.945312 C 31.777344 -24.890625 31.917969 -24.890625 32 -25.058594 C 32.167969 -25.394531 32.363281 -25.703125 32.53125 -26.007812 C 33.539062 -27.941406 34.578125 -29.84375 35.949219 -31.523438 C 36.089844 -31.664062 36.398438 -31.804688 36.230469 -32.058594 C 36.089844 -32.28125 35.78125 -32.28125 35.527344 -32.28125 C 35.191406 -32.28125 34.996094 -32.085938 34.800781 -31.859375 C 34.351562 -31.386719 33.820312 -30.964844 33.34375 -30.546875 C 32.839844 -30.125 32.363281 -29.648438 31.917969 -29.171875 C 28.558594 -25.449219 25.8125 -21.277344 23.320312 -16.910156 C 20.941406 -12.765625 18.421875 -8.707031 15.371094 -5.011719 C 13.605469 -2.828125 11.84375 -0.644531 9.714844 1.230469 C 9.40625 1.511719 9.128906 1.597656 8.707031 1.539062 C 6.914062 1.230469 5.09375 1.230469 3.304688 1.566406 Z M 8.203125 2.070312 C 8.289062 2.101562 8.371094 2.128906 8.539062 2.15625 C 7.054688 3.246094 5.597656 4.144531 3.890625 4.535156 C 3.414062 4.621094 2.941406 4.703125 2.464844 4.480469 C 1.847656 4.171875 1.734375 3.640625 2.210938 3.109375 C 2.6875 2.605469 3.304688 2.324219 3.976562 2.183594 C 5.375 1.960938 6.804688 1.902344 8.203125 2.070312 Z M 8.203125 2.070312 "/></g></g></g><g fill="#000000" fill-opacity="1"><g transform="translate(226.361622, 199.714864)"><g><path d="M 1.960938 -0.894531 C 2.015625 -0.308594 2.101562 0.28125 2.378906 0.8125 C 3.332031 2.605469 5.234375 2.996094 6.832031 2.324219 C 10.050781 0.953125 16.097656 -4.339844 19.570312 -4.757812 C 19.542969 -4.871094 19.542969 -4.925781 19.515625 -4.957031 C 18.5625 -6.019531 9.96875 -0.113281 7.140625 1.261719 C 6.410156 1.625 5.683594 1.933594 4.84375 1.933594 C 4.421875 1.902344 4.144531 1.734375 3.976562 1.34375 C 3.808594 0.953125 3.722656 0.53125 3.722656 0.0859375 C 3.695312 -0.925781 3.890625 -1.875 4.285156 -2.828125 C 4.589844 -3.613281 5.066406 -4.3125 5.488281 -5.039062 C 5.796875 -5.628906 5.738281 -5.824219 5.152344 -6.101562 C 4.984375 -6.1875 4.816406 -6.300781 4.648438 -6.242188 C 4.339844 -6.132812 4.171875 -6.300781 3.949219 -6.4375 C 3.109375 -6.914062 2.269531 -7.027344 1.429688 -6.496094 C -0.589844 -5.234375 -1.511719 -3.332031 -1.457031 -1.007812 C -1.457031 -0.222656 -0.558594 0.222656 0.167969 -0.113281 C 0.449219 -0.253906 0.699219 -0.449219 0.894531 -0.671875 C 1.203125 -0.953125 1.511719 -1.261719 1.847656 -1.597656 C 1.960938 -1.316406 1.933594 -1.09375 1.960938 -0.894531 Z M 0.390625 -1.230469 C 0.195312 -1.0625 -0.0273438 -0.925781 -0.335938 -0.699219 C -0.335938 -1.316406 -0.222656 -1.765625 -0.0546875 -2.15625 C 0.449219 -3.445312 1.175781 -4.535156 2.238281 -5.429688 C 2.4375 -5.597656 2.6875 -5.710938 2.910156 -5.851562 C 3.050781 -5.933594 3.246094 -5.964844 3.359375 -5.765625 C 3.472656 -5.597656 3.582031 -5.460938 3.445312 -5.234375 C 2.546875 -3.808594 1.679688 -2.351562 0.390625 -1.230469 Z M 0.390625 -1.230469 "/></g></g></g><g fill="#000000" fill-opacity="1"><g transform="translate(245.259044, 199.714864)"><g><path d="M 19.148438 -4.925781 C 11.675781 -3.613281 10.667969 -1.933594 4.367188 3.472656 C 3.640625 4.117188 2.882812 4.703125 1.933594 4.925781 C 0.839844 5.234375 0.195312 4.984375 -0.28125 3.949219 C -2.210938 -0.28125 1.902344 -7.308594 4.507812 -8.148438 C 4.757812 -8.203125 4.898438 -8.148438 4.925781 -7.894531 C 5.011719 -7.53125 5.011719 -7.167969 4.898438 -6.804688 C 4.730469 -6.160156 4.480469 -5.570312 4.117188 -5.039062 C 3.863281 -4.703125 3.949219 -4.535156 4.3125 -4.421875 C 4.535156 -4.339844 4.730469 -4.339844 4.898438 -4.535156 C 5.683594 -5.460938 6.132812 -6.523438 5.964844 -7.753906 C 5.878906 -8.289062 5.542969 -8.59375 5.039062 -8.761719 C 4.394531 -8.929688 3.808594 -8.820312 3.21875 -8.484375 C -1.09375 -5.796875 -3.136719 0.699219 -0.894531 4.058594 C -0.421875 4.789062 0.222656 5.207031 1.09375 5.320312 C 1.902344 5.429688 2.660156 5.207031 3.386719 4.816406 C 4.453125 4.199219 5.347656 3.386719 6.269531 2.574219 C 10.917969 -1.652344 13.550781 -4.117188 20.269531 -4.648438 C 19.878906 -5.039062 19.515625 -4.957031 19.148438 -4.925781 Z M 19.148438 -4.925781 "/></g></g></g><g fill="#000000" fill-opacity="1"><g transform="translate(264.800379, 199.714864)"><g><path d="M 1.960938 -0.894531 C 2.015625 -0.308594 2.101562 0.28125 2.378906 0.8125 C 3.332031 2.605469 5.234375 2.996094 6.832031 2.324219 C 10.050781 0.953125 16.097656 -4.339844 19.570312 -4.757812 C 19.542969 -4.871094 19.542969 -4.925781 19.515625 -4.957031 C 18.5625 -6.019531 9.96875 -0.113281 7.140625 1.261719 C 6.410156 1.625 5.683594 1.933594 4.84375 1.933594 C 4.421875 1.902344 4.144531 1.734375 3.976562 1.34375 C 3.808594 0.953125 3.722656 0.53125 3.722656 0.0859375 C 3.695312 -0.925781 3.890625 -1.875 4.285156 -2.828125 C 4.589844 -3.613281 5.066406 -4.3125 5.488281 -5.039062 C 5.796875 -5.628906 5.738281 -5.824219 5.152344 -6.101562 C 4.984375 -6.1875 4.816406 -6.300781 4.648438 -6.242188 C 4.339844 -6.132812 4.171875 -6.300781 3.949219 -6.4375 C 3.109375 -6.914062 2.269531 -7.027344 1.429688 -6.496094 C -0.589844 -5.234375 -1.511719 -3.332031 -1.457031 -1.007812 C -1.457031 -0.222656 -0.558594 0.222656 0.167969 -0.113281 C 0.449219 -0.253906 0.699219 -0.449219 0.894531 -0.671875 C 1.203125 -0.953125 1.511719 -1.261719 1.847656 -1.597656 C 1.960938 -1.316406 1.933594 -1.09375 1.960938 -0.894531 Z M 0.390625 -1.230469 C 0.195312 -1.0625 -0.0273438 -0.925781 -0.335938 -0.699219 C -0.335938 -1.316406 -0.222656 -1.765625 -0.0546875 -2.15625 C 0.449219 -3.445312 1.175781 -4.535156 2.238281 -5.429688 C 2.4375 -5.597656 2.6875 -5.710938 2.910156 -5.851562 C 3.050781 -5.933594 3.246094 -5.964844 3.359375 -5.765625 C 3.472656 -5.597656 3.582031 -5.460938 3.445312 -5.234375 C 2.546875 -3.808594 1.679688 -2.351562 0.390625 -1.230469 Z M 0.390625 -1.230469 "/></g></g></g><g fill="#000000" fill-opacity="1"><g transform="translate(283.6978, 199.714864)"><g><path d="M -2.042969 8.875 C -1.371094 8.929688 0 8.34375 0.558594 7.753906 C 0.644531 7.671875 0.839844 7.558594 0.699219 7.417969 C 0.558594 7.25 0.390625 7.335938 0.28125 7.449219 C -0.167969 7.839844 -0.671875 8.089844 -1.203125 8.316406 C -2.519531 8.902344 -3.277344 8.398438 -3.246094 6.945312 C -3.246094 5.964844 -2.910156 5.039062 -2.492188 4.144531 C -1.652344 2.351562 -0.53125 0.757812 0.53125 -0.867188 C 0.894531 -1.457031 1.230469 -2.042969 1.429688 -2.714844 C 1.539062 -3.078125 1.679688 -3.554688 1.398438 -3.808594 C 0.8125 -4.394531 1.121094 -4.789062 1.597656 -5.207031 C 1.707031 -5.292969 1.765625 -5.460938 1.820312 -5.628906 C 1.875 -5.796875 1.875 -5.964844 1.734375 -6.074219 C 1.457031 -6.410156 1.09375 -6.578125 0.644531 -6.496094 C 0.113281 -6.382812 -0.28125 -6.074219 -0.421875 -5.515625 C -0.53125 -5.066406 -0.390625 -4.589844 -0.0273438 -4.339844 C 0.28125 -4.144531 0.308594 -3.917969 0.253906 -3.640625 C 0.195312 -3.109375 0 -2.632812 -0.28125 -2.183594 C -0.726562 -1.457031 -1.175781 -0.726562 -1.625 -0.0273438 C -2.4375 1.230469 -3.191406 2.492188 -3.722656 3.863281 C -4.144531 5.039062 -4.3125 6.214844 -3.917969 7.449219 C -3.667969 8.230469 -2.855469 8.847656 -2.042969 8.875 Z M -2.042969 8.875 "/></g></g></g><g fill="#794f42" fill-opacity="1"><g transform="translate(108.951663, 129.727813)"><g><path d="M -0.34375 -1.109375 C -0.207031 -1.316406 -0.117188 -1.488281 -0.078125 -1.625 C -0.046875 -1.757812 -0.078125 -1.90625 -0.171875 -2.0625 C -0.265625 -2.226562 -0.457031 -2.414062 -0.75 -2.625 L -5.109375 -5.75 C -5.523438 -6.0625 -5.851562 -6.328125 -6.09375 -6.546875 L -6.671875 -5.671875 L -7.546875 -6.296875 L -5.203125 -9.546875 L -4.453125 -9.015625 C -4.585938 -8.804688 -4.671875 -8.628906 -4.703125 -8.484375 C -4.734375 -8.347656 -4.703125 -8.203125 -4.609375 -8.046875 C -4.523438 -7.890625 -4.335938 -7.703125 -4.046875 -7.484375 L 0.3125 -4.359375 C 0.726562 -4.054688 1.054688 -3.800781 1.296875 -3.59375 C 1.453125 -3.832031 1.644531 -4.117188 1.875 -4.453125 L 2.75 -3.828125 L 0.40625 -0.578125 Z M -0.34375 -1.109375 "/></g></g></g><g fill="#794f42" fill-opacity="1"><g transform="translate(117.9005, 118.373843)"><g><path d="M 1.15625 -2.40625 C 1.332031 -2.59375 1.445312 -2.75 1.5 -2.875 C 1.5625 -3.007812 1.5625 -3.160156 1.5 -3.328125 C 1.4375 -3.503906 1.273438 -3.722656 1.015625 -3.984375 L -3.65625 -8.78125 L -4.109375 -8.328125 C -4.492188 -7.941406 -4.664062 -7.515625 -4.625 -7.046875 C -4.59375 -6.578125 -4.328125 -6.078125 -3.828125 -5.546875 L -4.484375 -4.90625 L -6.609375 -7.21875 L -0.53125 -13.140625 L 1.703125 -10.9375 L 1.046875 -10.28125 C 0.546875 -10.8125 0.0546875 -11.109375 -0.421875 -11.171875 C -0.910156 -11.234375 -1.347656 -11.070312 -1.734375 -10.6875 L -2.21875 -10.21875 L 2.359375 -5.515625 C 2.796875 -5.066406 3.078125 -4.75 3.203125 -4.5625 C 3.410156 -4.800781 3.671875 -5.070312 3.984375 -5.375 L 4.734375 -4.609375 L 1.796875 -1.75 Z M 1.15625 -2.40625 "/></g></g></g><g fill="#794f42" fill-opacity="1"><g transform="translate(131.566891, 106.421662)"><g/></g></g><g fill="#794f42" fill-opacity="1"><g transform="translate(142.365394, 99.592792)"><g><path d="M 3.96875 -1.640625 C 3.625 -1.472656 3.226562 -1.351562 2.78125 -1.28125 C 2.34375 -1.207031 1.910156 -1.191406 1.484375 -1.234375 L 1.46875 -1.21875 L 1.765625 -0.703125 L 0.796875 -0.25 L -0.609375 -3.203125 L 0.21875 -3.59375 C 0.664062 -2.957031 1.179688 -2.554688 1.765625 -2.390625 C 2.359375 -2.222656 2.960938 -2.285156 3.578125 -2.578125 C 4.003906 -2.773438 4.304688 -3.054688 4.484375 -3.421875 C 4.671875 -3.796875 4.6875 -4.148438 4.53125 -4.484375 C 4.40625 -4.753906 4.195312 -4.9375 3.90625 -5.03125 C 3.625 -5.132812 3.34375 -5.1875 3.0625 -5.1875 C 2.78125 -5.195312 2.335938 -5.179688 1.734375 -5.140625 C 0.628906 -5.078125 -0.273438 -5.160156 -0.984375 -5.390625 C -1.703125 -5.628906 -2.242188 -6.128906 -2.609375 -6.890625 C -2.796875 -7.285156 -2.878906 -7.710938 -2.859375 -8.171875 C -2.847656 -8.628906 -2.675781 -9.085938 -2.34375 -9.546875 C -2.019531 -10.003906 -1.507812 -10.398438 -0.8125 -10.734375 C -0.445312 -10.898438 -0.0390625 -11.023438 0.40625 -11.109375 C 0.851562 -11.191406 1.25 -11.203125 1.59375 -11.140625 L 1.609375 -11.140625 L 1.3125 -11.609375 L 2.3125 -12.078125 L 3.71875 -9.140625 L 2.875 -8.75 C 2.4375 -9.382812 1.941406 -9.796875 1.390625 -9.984375 C 0.835938 -10.171875 0.273438 -10.125 -0.296875 -9.84375 C -0.679688 -9.664062 -0.957031 -9.40625 -1.125 -9.0625 C -1.300781 -8.726562 -1.316406 -8.40625 -1.171875 -8.09375 C -0.992188 -7.726562 -0.691406 -7.488281 -0.265625 -7.375 C 0.160156 -7.269531 0.820312 -7.25 1.71875 -7.3125 C 2.726562 -7.375 3.601562 -7.3125 4.34375 -7.125 C 5.09375 -6.9375 5.640625 -6.476562 5.984375 -5.75 C 6.222656 -5.25 6.300781 -4.738281 6.21875 -4.21875 C 6.144531 -3.695312 5.910156 -3.210938 5.515625 -2.765625 C 5.128906 -2.328125 4.613281 -1.953125 3.96875 -1.640625 Z M 3.96875 -1.640625 "/></g></g></g><g fill="#794f42" fill-opacity="1"><g transform="translate(158.303781, 92.845759)"><g><path d="M 5.25 -1.09375 C 4.164062 -0.820312 3.207031 -0.835938 2.375 -1.140625 C 1.550781 -1.441406 0.878906 -1.925781 0.359375 -2.59375 C -0.148438 -3.257812 -0.515625 -4.019531 -0.734375 -4.875 C -0.929688 -5.675781 -0.941406 -6.503906 -0.765625 -7.359375 C -0.597656 -8.210938 -0.21875 -8.976562 0.375 -9.65625 C 0.976562 -10.332031 1.785156 -10.796875 2.796875 -11.046875 C 3.828125 -11.316406 4.757812 -11.289062 5.59375 -10.96875 C 6.4375 -10.65625 7.125 -10.160156 7.65625 -9.484375 C 8.195312 -8.804688 8.566406 -8.066406 8.765625 -7.265625 C 8.960938 -6.484375 8.972656 -5.660156 8.796875 -4.796875 C 8.628906 -3.929688 8.25 -3.160156 7.65625 -2.484375 C 7.070312 -1.804688 6.269531 -1.34375 5.25 -1.09375 Z M 5.140625 -2.109375 C 5.734375 -2.253906 6.164062 -2.5625 6.4375 -3.03125 C 6.707031 -3.5 6.851562 -4.035156 6.875 -4.640625 C 6.894531 -5.253906 6.828125 -5.867188 6.671875 -6.484375 C 6.347656 -7.773438 5.863281 -8.742188 5.21875 -9.390625 C 4.570312 -10.035156 3.8125 -10.25 2.9375 -10.03125 C 2.34375 -9.875 1.898438 -9.554688 1.609375 -9.078125 C 1.328125 -8.609375 1.175781 -8.0625 1.15625 -7.4375 C 1.144531 -6.8125 1.21875 -6.1875 1.375 -5.5625 C 1.53125 -4.9375 1.78125 -4.328125 2.125 -3.734375 C 2.46875 -3.148438 2.894531 -2.691406 3.40625 -2.359375 C 3.925781 -2.035156 4.503906 -1.953125 5.140625 -2.109375 Z M 5.140625 -2.109375 "/></g></g></g><g fill="#794f42" fill-opacity="1"><g transform="translate(177.611461, 89.016246)"><g><path d="M 0.65625 -0.953125 C 0.90625 -0.972656 1.09375 -1.015625 1.21875 -1.078125 C 1.351562 -1.140625 1.453125 -1.253906 1.515625 -1.421875 C 1.578125 -1.585938 1.597656 -1.851562 1.578125 -2.21875 L 1.328125 -7.5625 C 1.304688 -8.082031 1.304688 -8.503906 1.328125 -8.828125 L 0.28125 -8.734375 L 0.234375 -9.8125 L 4.25 -10.015625 L 4.296875 -9.09375 C 4.046875 -9.0625 3.851562 -9.015625 3.71875 -8.953125 C 3.59375 -8.898438 3.492188 -8.785156 3.421875 -8.609375 C 3.359375 -8.441406 3.332031 -8.175781 3.34375 -7.8125 L 3.609375 -2.46875 C 3.628906 -1.96875 3.632812 -1.554688 3.625 -1.234375 L 5.5 -1.328125 C 6.0625 -1.367188 6.484375 -1.585938 6.765625 -1.984375 C 7.046875 -2.390625 7.171875 -2.96875 7.140625 -3.71875 L 8.078125 -3.75 L 8.140625 -0.390625 L 0.703125 -0.03125 Z M 0.65625 -0.953125 "/></g></g></g><g fill="#794f42" fill-opacity="1"><g transform="translate(195.003071, 88.956709)"><g><path d="M 5.296875 1.015625 C 3.847656 0.796875 2.878906 0.257812 2.390625 -0.59375 C 1.898438 -1.445312 1.753906 -2.535156 1.953125 -3.859375 L 2.46875 -7.21875 C 2.539062 -7.726562 2.617188 -8.144531 2.703125 -8.46875 L 1.65625 -8.578125 L 1.828125 -9.640625 L 5.796875 -9.03125 L 5.65625 -8.125 C 5.414062 -8.15625 5.222656 -8.15625 5.078125 -8.125 C 4.929688 -8.09375 4.8125 -8 4.71875 -7.84375 C 4.625 -7.6875 4.550781 -7.429688 4.5 -7.078125 L 3.921875 -3.265625 C 3.628906 -1.304688 4.253906 -0.207031 5.796875 0.03125 C 6.523438 0.132812 7.128906 -0.03125 7.609375 -0.46875 C 8.085938 -0.90625 8.398438 -1.613281 8.546875 -2.59375 L 9.09375 -6.21875 C 9.1875 -6.832031 9.269531 -7.242188 9.34375 -7.453125 L 8.28125 -7.578125 L 8.453125 -8.640625 L 11.65625 -8.15625 L 11.515625 -7.25 C 11.265625 -7.269531 11.066406 -7.265625 10.921875 -7.234375 C 10.785156 -7.203125 10.664062 -7.109375 10.5625 -6.953125 C 10.46875 -6.796875 10.394531 -6.539062 10.34375 -6.1875 L 9.828125 -2.71875 C 9.597656 -1.207031 9.082031 -0.160156 8.28125 0.421875 C 7.488281 1.003906 6.492188 1.203125 5.296875 1.015625 Z M 5.296875 1.015625 "/></g></g></g><g fill="#794f42" fill-opacity="1"><g transform="translate(214.163798, 92.833277)"><g><path d="M 2.671875 0 C 2.921875 0.0820312 3.113281 0.117188 3.25 0.109375 C 3.394531 0.109375 3.53125 0.0390625 3.65625 -0.09375 C 3.78125 -0.226562 3.90625 -0.46875 4.03125 -0.8125 L 6.34375 -7.09375 L 5.75 -7.3125 C 5.21875 -7.5 4.75 -7.472656 4.34375 -7.234375 C 3.9375 -6.992188 3.609375 -6.53125 3.359375 -5.84375 L 2.484375 -6.15625 L 3.65625 -9.09375 L 11.625 -6.1875 L 10.59375 -3.1875 L 9.734375 -3.5 C 9.984375 -4.1875 10.03125 -4.757812 9.875 -5.21875 C 9.726562 -5.675781 9.398438 -5.992188 8.890625 -6.171875 L 8.25 -6.40625 L 6 -0.25 C 5.78125 0.332031 5.617188 0.722656 5.515625 0.921875 C 5.816406 0.992188 6.171875 1.101562 6.578125 1.25 L 6.203125 2.265625 L 2.359375 0.859375 Z M 2.671875 0 "/></g></g></g><g fill="#794f42" fill-opacity="1"><g transform="translate(230.829941, 99.944104)"><g><path d="M 1.078125 -0.4375 C 1.296875 -0.320312 1.472656 -0.253906 1.609375 -0.234375 C 1.742188 -0.222656 1.882812 -0.269531 2.03125 -0.375 C 2.175781 -0.476562 2.34375 -0.691406 2.53125 -1.015625 L 5.21875 -5.640625 C 5.476562 -6.085938 5.707031 -6.441406 5.90625 -6.703125 L 4.984375 -7.1875 L 5.53125 -8.109375 L 9 -6.109375 L 8.53125 -5.3125 C 8.300781 -5.4375 8.117188 -5.503906 7.984375 -5.515625 C 7.847656 -5.535156 7.703125 -5.492188 7.546875 -5.390625 C 7.398438 -5.285156 7.238281 -5.078125 7.0625 -4.765625 L 4.375 -0.125 C 4.113281 0.320312 3.882812 0.679688 3.6875 0.953125 C 3.96875 1.066406 4.28125 1.222656 4.625 1.421875 L 4.078125 2.359375 L 0.609375 0.359375 Z M 1.078125 -0.4375 "/></g></g></g><g fill="#794f42" fill-opacity="1"><g transform="translate(243.008488, 107.676257)"><g><path d="M 3.921875 3.65625 C 3.078125 2.9375 2.539062 2.144531 2.3125 1.28125 C 2.082031 0.425781 2.085938 -0.398438 2.328125 -1.203125 C 2.578125 -2.003906 2.988281 -2.738281 3.5625 -3.40625 C 4.101562 -4.03125 4.769531 -4.519531 5.5625 -4.875 C 6.351562 -5.226562 7.195312 -5.351562 8.09375 -5.25 C 9 -5.15625 9.847656 -4.769531 10.640625 -4.09375 C 11.453125 -3.394531 11.96875 -2.613281 12.1875 -1.75 C 12.414062 -0.882812 12.410156 -0.0390625 12.171875 0.78125 C 11.929688 1.613281 11.539062 2.34375 11 2.96875 C 10.476562 3.582031 9.816406 4.066406 9.015625 4.421875 C 8.210938 4.773438 7.363281 4.90625 6.46875 4.8125 C 5.570312 4.726562 4.722656 4.34375 3.921875 3.65625 Z M 4.6875 2.96875 C 5.144531 3.363281 5.644531 3.539062 6.1875 3.5 C 6.738281 3.457031 7.265625 3.269531 7.765625 2.9375 C 8.273438 2.601562 8.738281 2.195312 9.15625 1.71875 C 10.019531 0.707031 10.523438 -0.242188 10.671875 -1.140625 C 10.828125 -2.046875 10.5625 -2.789062 9.875 -3.375 C 9.414062 -3.78125 8.90625 -3.960938 8.34375 -3.921875 C 7.789062 -3.878906 7.253906 -3.6875 6.734375 -3.34375 C 6.222656 -3 5.757812 -2.582031 5.34375 -2.09375 C 4.914062 -1.601562 4.554688 -1.046875 4.265625 -0.421875 C 3.984375 0.191406 3.859375 0.800781 3.890625 1.40625 C 3.921875 2.019531 4.1875 2.539062 4.6875 2.96875 Z M 4.6875 2.96875 "/></g></g></g><g fill="#794f42" fill-opacity="1"><g transform="translate(257.297466, 121.153458)"><g><path d="M 6.6875 -0.46875 C 6.769531 -0.832031 6.882812 -1.253906 7.03125 -1.734375 L 3.59375 0.921875 C 3.175781 1.234375 2.828125 1.472656 2.546875 1.640625 C 2.753906 1.859375 2.984375 2.128906 3.234375 2.453125 L 2.375 3.109375 L 0.4375 0.578125 L 1.171875 0.015625 C 1.328125 0.210938 1.46875 0.347656 1.59375 0.421875 C 1.71875 0.492188 1.863281 0.503906 2.03125 0.453125 C 2.207031 0.410156 2.441406 0.28125 2.734375 0.0625 L 7 -3.203125 C 7.488281 -3.585938 7.828125 -3.832031 8.015625 -3.9375 L 7.34375 -4.75 L 8.203125 -5.40625 L 9.546875 -3.65625 L 7.828125 3.03125 C 7.648438 3.644531 7.5 4.171875 7.375 4.609375 L 10.90625 1.921875 C 11.382812 1.554688 11.726562 1.316406 11.9375 1.203125 L 11.265625 0.390625 L 12.125 -0.265625 L 14.0625 2.28125 L 13.328125 2.828125 C 13.160156 2.628906 13.015625 2.492188 12.890625 2.421875 C 12.773438 2.359375 12.628906 2.347656 12.453125 2.390625 C 12.273438 2.429688 12.046875 2.5625 11.765625 2.78125 L 5.5625 7.5 L 4.828125 6.546875 Z M 6.6875 -0.46875 "/></g></g></g><g fill="#794f42" fill-opacity="1"><g transform="translate(90.952084, 233.479239)"><g><path d="M 7.296875 -2.0625 C 7.742188 -2.582031 8.078125 -2.894531 8.296875 -3 L 7.921875 -3.625 L 8.890625 -4.09375 L 10.6875 -0.390625 L 9.859375 0 C 9.742188 -0.269531 9.613281 -0.453125 9.46875 -0.546875 C 9.320312 -0.648438 9.144531 -0.648438 8.9375 -0.546875 C 8.832031 -0.492188 8.707031 -0.398438 8.5625 -0.265625 L 6.0625 1.859375 C 6 1.921875 5.828125 2.070312 5.546875 2.3125 C 5.265625 2.550781 4.898438 2.828125 4.453125 3.140625 L 4.46875 3.15625 L 7.40625 2.625 L 11.828125 1.953125 L 12.375 3.078125 L 8.4375 6.75 C 8.101562 7.050781 7.566406 7.5 6.828125 8.09375 L 6.84375 8.109375 L 8.828125 7.75 L 11.796875 7.171875 C 12.390625 7.035156 12.859375 7.019531 13.203125 7.125 L 13.21875 7.125 L 12.84375 6.484375 L 12.6875 6.1875 L 13.65625 5.71875 L 15.015625 8.546875 L 14.1875 8.9375 C 14.03125 8.65625 13.796875 8.453125 13.484375 8.328125 C 13.171875 8.210938 12.742188 8.1875 12.203125 8.25 L 4.5 9.453125 L 3.953125 8.328125 L 7.71875 4.671875 C 8.0625 4.335938 8.519531 3.945312 9.09375 3.5 C 9.164062 3.457031 9.257812 3.394531 9.375 3.3125 L 9.375 3.296875 C 8.789062 3.472656 8.179688 3.613281 7.546875 3.71875 L 2.140625 4.578125 L 1.609375 3.46875 Z M 7.296875 -2.0625 "/></g></g></g><g fill="#794f42" fill-opacity="1"><g transform="translate(103.123924, 255.239745)"><g><path d="M 1.15625 -0.03125 C 1.320312 0.164062 1.460938 0.300781 1.578125 0.375 C 1.703125 0.445312 1.851562 0.457031 2.03125 0.40625 C 2.207031 0.363281 2.4375 0.226562 2.71875 0 L 6.9375 -3.328125 C 7.34375 -3.648438 7.679688 -3.894531 7.953125 -4.0625 L 7.28125 -4.859375 L 8.125 -5.53125 L 12.46875 -0.03125 L 10.375 1.71875 L 9.796875 0.984375 C 10.347656 0.554688 10.625 0.128906 10.625 -0.296875 C 10.632812 -0.722656 10.484375 -1.109375 10.171875 -1.453125 L 9.859375 -1.84375 C 9.710938 -2.019531 9.578125 -2.140625 9.453125 -2.203125 C 9.328125 -2.265625 9.171875 -2.269531 8.984375 -2.21875 C 8.804688 -2.164062 8.582031 -2.035156 8.3125 -1.828125 L 6.671875 -0.53125 L 7.6875 0.75 C 7.800781 0.644531 8.109375 0.382812 8.609375 -0.03125 L 9.28125 0.8125 L 6.609375 2.921875 L 6.015625 2.1875 C 6.316406 1.957031 6.5 1.742188 6.5625 1.546875 C 6.632812 1.347656 6.628906 1.15625 6.546875 0.96875 C 6.472656 0.78125 6.335938 0.578125 6.140625 0.359375 L 5.921875 0.078125 L 4.109375 1.5 C 3.722656 1.8125 3.390625 2.050781 3.109375 2.21875 L 4.265625 3.703125 C 4.566406 4.078125 4.945312 4.289062 5.40625 4.34375 C 5.863281 4.394531 6.367188 4.207031 6.921875 3.78125 L 7.484375 4.5 L 5.015625 6.34375 L 0.4375 0.546875 Z M 1.15625 -0.03125 "/></g></g></g><g fill="#794f42" fill-opacity="1"><g transform="translate(115.892449, 269.788993)"><g><path d="M 1.125 -0.25 C 1.320312 -0.09375 1.488281 0.00390625 1.625 0.046875 C 1.757812 0.0976562 1.90625 0.0820312 2.0625 0 C 2.226562 -0.0703125 2.429688 -0.25 2.671875 -0.53125 L 6.171875 -4.59375 C 6.503906 -4.988281 6.796875 -5.296875 7.046875 -5.515625 L 6.21875 -6.15625 L 6.921875 -6.984375 L 9.875 -4.46875 C 10.738281 -3.75 11.273438 -3.023438 11.484375 -2.296875 C 11.691406 -1.578125 11.539062 -0.914062 11.03125 -0.3125 C 10.726562 0.03125 10.320312 0.238281 9.8125 0.3125 C 9.3125 0.382812 8.75 0.269531 8.125 -0.03125 L 8.109375 -0.015625 C 8.691406 0.671875 9.003906 1.335938 9.046875 1.984375 C 9.097656 2.628906 8.925781 3.1875 8.53125 3.65625 C 7.957031 4.320312 7.269531 4.632812 6.46875 4.59375 C 5.675781 4.5625 4.898438 4.210938 4.140625 3.546875 L 0.53125 0.453125 Z M 6.96875 -1.28125 C 7.394531 -0.9375 7.8125 -0.8125 8.21875 -0.90625 C 8.625 -1 9.007812 -1.257812 9.375 -1.6875 C 9.695312 -2.0625 9.832031 -2.425781 9.78125 -2.78125 C 9.726562 -3.144531 9.546875 -3.457031 9.234375 -3.71875 C 9.085938 -3.84375 8.953125 -3.925781 8.828125 -3.96875 C 8.710938 -4.019531 8.570312 -4 8.40625 -3.90625 C 8.238281 -3.820312 8.046875 -3.648438 7.828125 -3.390625 L 6.40625 -1.75 Z M 3.4375 1.625 C 3.90625 2.03125 4.25 2.328125 4.46875 2.515625 C 4.90625 2.847656 5.328125 2.976562 5.734375 2.90625 C 6.148438 2.84375 6.535156 2.609375 6.890625 2.203125 C 7.273438 1.742188 7.421875 1.300781 7.328125 0.875 C 7.242188 0.457031 7.007812 0.0820312 6.625 -0.25 C 6.238281 -0.582031 5.953125 -0.832031 5.765625 -1 L 4.28125 0.734375 C 3.945312 1.117188 3.664062 1.414062 3.4375 1.625 Z M 3.4375 1.625 "/></g></g></g><g fill="#794f42" fill-opacity="1"><g transform="translate(131.570818, 281.799693)"><g/></g></g><g fill="#794f42" fill-opacity="1"><g transform="translate(144.050467, 288.590178)"><g><path d="M 3.328125 1.546875 C 2.785156 1.335938 2.3125 1.050781 1.90625 0.6875 C 1.507812 0.332031 1.238281 -0.0820312 1.09375 -0.5625 C 0.945312 -1.039062 0.976562 -1.546875 1.1875 -2.078125 C 1.414062 -2.648438 1.804688 -3.09375 2.359375 -3.40625 C 2.910156 -3.71875 3.523438 -3.859375 4.203125 -3.828125 C 3.960938 -4.460938 3.84375 -4.992188 3.84375 -5.421875 C 3.84375 -5.847656 3.929688 -6.265625 4.109375 -6.671875 C 4.367188 -7.335938 4.800781 -7.769531 5.40625 -7.96875 C 6.007812 -8.175781 6.6875 -8.132812 7.4375 -7.84375 C 7.882812 -7.664062 8.242188 -7.414062 8.515625 -7.09375 C 8.785156 -6.769531 8.953125 -6.410156 9.015625 -6.015625 C 9.078125 -5.628906 9.035156 -5.257812 8.890625 -4.90625 C 8.691406 -4.40625 8.328125 -4.003906 7.796875 -3.703125 C 7.273438 -3.410156 6.679688 -3.207031 6.015625 -3.09375 C 6.035156 -3.007812 6.179688 -2.65625 6.453125 -2.03125 C 6.722656 -1.40625 7.003906 -0.796875 7.296875 -0.203125 L 7.3125 -0.203125 C 7.425781 -0.359375 7.535156 -0.5625 7.640625 -0.8125 C 7.773438 -1.164062 7.8125 -1.4375 7.75 -1.625 C 7.6875 -1.820312 7.546875 -1.976562 7.328125 -2.09375 L 7.65625 -2.921875 L 9.84375 -2.046875 L 9.453125 -1.078125 C 9.335938 -1.128906 9.109375 -1.242188 8.765625 -1.421875 L 8.75 -1.40625 C 8.757812 -1.144531 8.703125 -0.863281 8.578125 -0.5625 C 8.390625 -0.0703125 8.125 0.367188 7.78125 0.765625 L 7.90625 1.015625 C 8.425781 1.960938 8.835938 2.492188 9.140625 2.609375 L 8.796875 3.46875 L 7.390625 2.921875 C 7.316406 2.890625 7.1875 2.753906 7 2.515625 C 6.8125 2.273438 6.617188 2 6.421875 1.6875 C 5.941406 1.832031 5.441406 1.898438 4.921875 1.890625 C 4.398438 1.878906 3.867188 1.765625 3.328125 1.546875 Z M 5.703125 -4.03125 C 6.109375 -4.132812 6.46875 -4.335938 6.78125 -4.640625 C 7.101562 -4.941406 7.328125 -5.242188 7.453125 -5.546875 C 7.578125 -5.859375 7.597656 -6.144531 7.515625 -6.40625 C 7.429688 -6.664062 7.265625 -6.847656 7.015625 -6.953125 C 6.765625 -7.046875 6.515625 -7.023438 6.265625 -6.890625 C 6.015625 -6.753906 5.816406 -6.5 5.671875 -6.125 C 5.566406 -5.863281 5.515625 -5.535156 5.515625 -5.140625 C 5.523438 -4.742188 5.585938 -4.375 5.703125 -4.03125 Z M 4.109375 0.796875 C 4.734375 1.046875 5.351562 1.054688 5.96875 0.828125 L 5.5625 -0.03125 C 5.039062 -1.09375 4.613281 -2.066406 4.28125 -2.953125 C 3.988281 -2.847656 3.734375 -2.675781 3.515625 -2.4375 C 3.304688 -2.195312 3.15625 -1.960938 3.0625 -1.734375 C 2.832031 -1.148438 2.8125 -0.632812 3 -0.1875 C 3.1875 0.25 3.554688 0.578125 4.109375 0.796875 Z M 4.109375 0.796875 "/></g></g></g><g fill="#794f42" fill-opacity="1"><g transform="translate(162.919416, 294.844526)"><g/></g></g><g fill="#794f42" fill-opacity="1"><g transform="translate(177.02551, 297.292514)"><g><path d="M 3.921875 -4.390625 C 3.785156 -4.710938 3.625 -5.171875 3.4375 -5.765625 C 3.257812 -6.359375 3.113281 -6.957031 3 -7.5625 L 2.984375 -7.5625 C 2.992188 -6.71875 2.992188 -5.945312 2.984375 -5.25 L 2.96875 -4.765625 L 2.90625 -2.234375 C 2.894531 -1.648438 2.859375 -1.226562 2.796875 -0.96875 C 3.109375 -1 3.460938 -1.007812 3.859375 -1 L 3.84375 0.078125 L 0.65625 0.015625 L 0.671875 -0.90625 C 0.921875 -0.914062 1.109375 -0.941406 1.234375 -0.984375 C 1.367188 -1.035156 1.476562 -1.144531 1.5625 -1.3125 C 1.644531 -1.476562 1.691406 -1.742188 1.703125 -2.109375 L 1.890625 -7.46875 C 1.921875 -8.15625 1.953125 -8.578125 1.984375 -8.734375 L 0.90625 -8.703125 L 0.9375 -9.78125 L 4.046875 -9.71875 L 6.046875 -4.25 C 6.171875 -3.894531 6.304688 -3.492188 6.453125 -3.046875 C 6.609375 -2.597656 6.71875 -2.257812 6.78125 -2.03125 L 6.796875 -2.03125 C 6.828125 -2.125 6.9375 -2.410156 7.125 -2.890625 C 7.257812 -3.265625 7.378906 -3.585938 7.484375 -3.859375 L 9.78125 -9.59375 L 13.015625 -9.53125 L 13 -8.609375 C 12.75 -8.609375 12.550781 -8.582031 12.40625 -8.53125 C 12.257812 -8.476562 12.144531 -8.367188 12.0625 -8.203125 C 11.988281 -8.046875 11.953125 -7.78125 11.953125 -7.40625 L 12.0625 -2.046875 C 12.070312 -1.566406 12.039062 -1.144531 11.96875 -0.78125 C 12.28125 -0.8125 12.632812 -0.820312 13.03125 -0.8125 L 13.015625 0.265625 L 9.125 0.1875 L 9.140625 -0.734375 C 9.390625 -0.742188 9.582031 -0.769531 9.71875 -0.8125 C 9.851562 -0.863281 9.960938 -0.972656 10.046875 -1.140625 C 10.128906 -1.304688 10.171875 -1.570312 10.171875 -1.9375 L 10.125 -4.90625 L 10.09375 -5.4375 C 10.0625 -6.34375 10.046875 -6.972656 10.046875 -7.328125 L 7.015625 0.28125 L 5.71875 0.265625 Z M 3.921875 -4.390625 "/></g></g></g><g fill="#794f42" fill-opacity="1"><g transform="translate(201.369217, 296.422539)"><g><path d="M 5.296875 -0.875 C 4.203125 -0.644531 3.25 -0.695312 2.4375 -1.03125 C 1.625 -1.363281 0.972656 -1.875 0.484375 -2.5625 C -0.00390625 -3.25 -0.34375 -4.023438 -0.53125 -4.890625 C -0.695312 -5.703125 -0.671875 -6.53125 -0.453125 -7.375 C -0.242188 -8.226562 0.171875 -8.976562 0.796875 -9.625 C 1.421875 -10.28125 2.242188 -10.710938 3.265625 -10.921875 C 4.316406 -11.140625 5.253906 -11.070312 6.078125 -10.71875 C 6.898438 -10.375 7.5625 -9.851562 8.0625 -9.15625 C 8.5625 -8.457031 8.894531 -7.703125 9.0625 -6.890625 C 9.226562 -6.097656 9.207031 -5.273438 9 -4.421875 C 8.800781 -3.566406 8.390625 -2.8125 7.765625 -2.15625 C 7.148438 -1.507812 6.328125 -1.082031 5.296875 -0.875 Z M 5.234375 -1.890625 C 5.816406 -2.015625 6.257812 -2.300781 6.5625 -2.75 C 6.863281 -3.207031 7.035156 -3.738281 7.078125 -4.34375 C 7.117188 -4.957031 7.078125 -5.578125 6.953125 -6.203125 C 6.679688 -7.503906 6.234375 -8.488281 5.609375 -9.15625 C 4.992188 -9.820312 4.242188 -10.066406 3.359375 -9.890625 C 2.753906 -9.765625 2.296875 -9.46875 1.984375 -9 C 1.679688 -8.539062 1.507812 -8 1.46875 -7.375 C 1.425781 -6.757812 1.46875 -6.132812 1.59375 -5.5 C 1.726562 -4.875 1.953125 -4.253906 2.265625 -3.640625 C 2.585938 -3.035156 3 -2.5625 3.5 -2.21875 C 4.007812 -1.875 4.585938 -1.765625 5.234375 -1.890625 Z M 5.234375 -1.890625 "/></g></g></g><g fill="#794f42" fill-opacity="1"><g transform="translate(222.083725, 290.948276)"><g><path d="M 0.28125 -1.125 C 0.5 -1.226562 0.65625 -1.328125 0.75 -1.421875 C 0.851562 -1.523438 0.90625 -1.671875 0.90625 -1.859375 C 0.914062 -2.046875 0.847656 -2.304688 0.703125 -2.640625 L -1.421875 -7.5625 C -1.628906 -8.039062 -1.773438 -8.429688 -1.859375 -8.734375 L -2.8125 -8.28125 L -3.234375 -9.28125 L 0.3125 -10.84375 C 1.34375 -11.300781 2.226562 -11.460938 2.96875 -11.328125 C 3.707031 -11.203125 4.234375 -10.773438 4.546875 -10.046875 C 4.722656 -9.628906 4.734375 -9.175781 4.578125 -8.6875 C 4.429688 -8.195312 4.082031 -7.738281 3.53125 -7.3125 L 3.546875 -7.296875 C 4.421875 -7.515625 5.160156 -7.503906 5.765625 -7.265625 C 6.367188 -7.023438 6.796875 -6.617188 7.046875 -6.046875 C 7.390625 -5.234375 7.367188 -4.484375 6.984375 -3.796875 C 6.597656 -3.109375 5.9375 -2.5625 5 -2.15625 L 0.640625 -0.28125 Z M 1.90625 -6.828125 C 2.40625 -7.054688 2.703125 -7.375 2.796875 -7.78125 C 2.890625 -8.1875 2.828125 -8.644531 2.609375 -9.15625 C 2.410156 -9.613281 2.132812 -9.894531 1.78125 -10 C 1.4375 -10.113281 1.078125 -10.09375 0.703125 -9.9375 C 0.523438 -9.851562 0.390625 -9.769531 0.296875 -9.6875 C 0.210938 -9.601562 0.171875 -9.460938 0.171875 -9.265625 C 0.179688 -9.078125 0.253906 -8.828125 0.390625 -8.515625 L 1.25 -6.515625 Z M 2.984375 -2.375 C 3.546875 -2.613281 3.957031 -2.796875 4.21875 -2.921875 C 4.707031 -3.160156 5.007812 -3.476562 5.125 -3.875 C 5.25 -4.28125 5.203125 -4.734375 4.984375 -5.234375 C 4.753906 -5.785156 4.429688 -6.109375 4.015625 -6.203125 C 3.597656 -6.304688 3.15625 -6.257812 2.6875 -6.0625 C 2.21875 -5.863281 1.867188 -5.710938 1.640625 -5.609375 L 2.546875 -3.5 C 2.742188 -3.039062 2.890625 -2.664062 2.984375 -2.375 Z M 2.984375 -2.375 "/></g></g></g><g fill="#794f42" fill-opacity="1"><g transform="translate(239.755702, 282.129233)"><g/></g></g><g fill="#794f42" fill-opacity="1"><g transform="translate(251.372525, 273.896072)"><g><path d="M -0.109375 -1.15625 C 0.0664062 -1.332031 0.179688 -1.484375 0.234375 -1.609375 C 0.296875 -1.734375 0.296875 -1.878906 0.234375 -2.046875 C 0.179688 -2.222656 0.03125 -2.445312 -0.21875 -2.71875 L -3.859375 -6.640625 C -4.210938 -7.023438 -4.484375 -7.351562 -4.671875 -7.625 L -5.40625 -6.890625 L -6.140625 -7.671875 L -3.15625 -10.453125 C -2.300781 -11.242188 -1.414062 -11.742188 -0.5 -11.953125 C 0.40625 -12.160156 1.25 -12.128906 2.03125 -11.859375 C 2.820312 -11.585938 3.492188 -11.15625 4.046875 -10.5625 C 4.597656 -9.957031 4.992188 -9.242188 5.234375 -8.421875 C 5.472656 -7.609375 5.457031 -6.742188 5.1875 -5.828125 C 4.925781 -4.910156 4.347656 -4.03125 3.453125 -3.1875 L 0.515625 -0.484375 Z M 2.984375 -4.140625 C 3.460938 -4.585938 3.742188 -5.085938 3.828125 -5.640625 C 3.910156 -6.191406 3.835938 -6.738281 3.609375 -7.28125 C 3.390625 -7.832031 3.0625 -8.347656 2.625 -8.828125 C 1.65625 -9.867188 0.726562 -10.441406 -0.15625 -10.546875 C -1.039062 -10.660156 -1.875 -10.359375 -2.65625 -9.640625 C -2.882812 -9.421875 -2.992188 -9.207031 -2.984375 -9 C -2.972656 -8.800781 -2.804688 -8.523438 -2.484375 -8.171875 L 1.171875 -4.21875 C 1.523438 -3.832031 1.796875 -3.507812 1.984375 -3.25 C 2.003906 -3.28125 2.066406 -3.34375 2.171875 -3.4375 L 2.625 -3.828125 C 2.726562 -3.910156 2.847656 -4.015625 2.984375 -4.140625 Z M 2.984375 -4.140625 "/></g></g></g><g fill="#794f42" fill-opacity="1"><g transform="translate(266.175081, 258.622614)"><g><path d="M -0.34375 -1.109375 C -0.207031 -1.316406 -0.117188 -1.488281 -0.078125 -1.625 C -0.046875 -1.757812 -0.078125 -1.90625 -0.171875 -2.0625 C -0.265625 -2.226562 -0.457031 -2.414062 -0.75 -2.625 L -5.09375 -5.765625 C -5.519531 -6.066406 -5.847656 -6.328125 -6.078125 -6.546875 L -6.671875 -5.65625 L -7.546875 -6.296875 L -3.453125 -11.984375 L -1.1875 -10.453125 L -1.71875 -9.703125 C -2.289062 -10.109375 -2.78125 -10.253906 -3.1875 -10.140625 C -3.601562 -10.023438 -3.9375 -9.773438 -4.1875 -9.390625 L -4.484375 -8.96875 C -4.597656 -8.789062 -4.671875 -8.628906 -4.703125 -8.484375 C -4.742188 -8.347656 -4.710938 -8.195312 -4.609375 -8.03125 C -4.503906 -7.875 -4.3125 -7.695312 -4.03125 -7.5 L -2.34375 -6.265625 L -1.375 -7.59375 C -1.507812 -7.675781 -1.847656 -7.90625 -2.390625 -8.28125 L -1.765625 -9.15625 L 1 -7.15625 L 0.453125 -6.390625 C 0.148438 -6.609375 -0.101562 -6.722656 -0.3125 -6.734375 C -0.53125 -6.742188 -0.710938 -6.6875 -0.859375 -6.5625 C -1.015625 -6.445312 -1.175781 -6.269531 -1.34375 -6.03125 L -1.546875 -5.703125 L 0.3125 -4.359375 C 0.71875 -4.066406 1.039062 -3.816406 1.28125 -3.609375 L 2.390625 -5.125 C 2.671875 -5.507812 2.773438 -5.925781 2.703125 -6.375 C 2.628906 -6.832031 2.304688 -7.265625 1.734375 -7.671875 L 2.265625 -8.40625 L 4.734375 -6.5625 L 0.40625 -0.5625 Z M -0.34375 -1.109375 "/></g></g></g><g fill="#794f42" fill-opacity="1"><g transform="translate(276.694162, 242.352088)"><g><path d="M -6.234375 -4.25 C -6.898438 -4.269531 -7.359375 -4.332031 -7.609375 -4.4375 L -7.875 -3.71875 L -8.859375 -4.171875 L -7.140625 -7.921875 L -6.296875 -7.53125 C -6.578125 -6.988281 -6.53125 -6.632812 -6.15625 -6.46875 C -6.019531 -6.40625 -5.851562 -6.375 -5.65625 -6.375 L -2.25 -6.234375 C -1.957031 -6.222656 -1.582031 -6.203125 -1.125 -6.171875 C -0.96875 -6.160156 -0.625 -6.140625 -0.09375 -6.109375 L -0.09375 -6.125 L -1.578125 -7.546875 L -3.796875 -9.71875 C -4.285156 -10.175781 -4.585938 -10.523438 -4.703125 -10.765625 L -4.71875 -10.78125 L -4.984375 -10.109375 L -5.109375 -9.78125 L -6.09375 -10.234375 L -4.78125 -13.078125 L -3.9375 -12.6875 C -4.0625 -12.394531 -4.066406 -12.09375 -3.953125 -11.78125 C -3.847656 -11.46875 -3.597656 -11.113281 -3.203125 -10.71875 L 2.421875 -5.078125 L 1.9375 -4.046875 Z M -6.234375 -4.25 "/></g></g></g></svg>